<svg width="644" height="565" viewBox="0 0 644 565" fill="none" xmlns="http://www.w3.org/2000/svg">
<path fill-rule="evenodd" clip-rule="evenodd" d="M644 436.266C644 423.308 640.173 411.233 633.604 401.11L422.041 34.4759C416.488 24.0531 408.205 15.3381 398.079 9.26494C387.953 3.19181 376.366 -0.0105688 364.559 0.00100784H252.742L579.526 564.447L631.046 475.49C641.222 458.464 644 450.936 644 436.266ZM0 435.585L54.3904 529.328C59.8284 540.066 68.155 549.085 78.4099 555.382C88.6648 561.679 100.465 565.008 112.498 564.999H473.579L398.654 435.603H0V435.585ZM199.309 91.4617L345.368 343.646H53.2312L199.309 91.4617Z" fill="#BE3C3C"/>
</svg>
