<svg width="371" height="371" viewBox="0 0 371 371" fill="none" xmlns="http://www.w3.org/2000/svg">
<path d="M0 185.5C0 134.294 18.1152 90.5761 54.346 54.3456C90.5761 18.1152 134.294 0 185.5 0C236.705 0 280.424 18.1152 316.654 54.3456C352.884 90.5761 371 134.294 371 185.5C371 236.705 352.885 280.424 316.654 316.654C280.424 352.884 236.706 371 185.5 371C134.294 371 90.5761 352.885 54.346 316.654C18.1152 280.424 0 236.705 0 185.5ZM20.289 185.5C20.289 230.909 36.472 269.796 68.8378 302.162C101.204 334.528 140.091 350.711 185.5 350.711C230.909 350.711 269.796 334.528 302.162 302.162C334.528 269.796 350.711 230.909 350.711 185.5C350.711 140.091 334.528 101.204 302.162 68.8378C269.796 36.472 230.909 20.289 185.5 20.289C140.091 20.289 101.204 36.472 68.8378 68.8378C36.472 101.204 20.289 140.091 20.289 185.5ZM72.4612 225.353C71.4951 224.387 71.4951 223.421 72.4612 222.455C74.3931 220.523 76.8089 219.798 79.7069 220.281C82.6054 220.764 84.2961 221.247 84.7792 221.73C88.1607 223.179 91.9047 226.44 96.0105 231.513C100.116 236.585 103.377 240.087 105.793 242.019C117.387 251.681 129.222 252.405 141.298 244.193C142.264 240.812 143.835 237.913 146.008 235.497C148.182 233.082 150.235 231.392 152.167 230.425C154.1 229.459 157.482 228.01 162.312 226.078C146.371 224.628 133.449 221.85 123.546 217.744C113.643 213.638 105.792 208.445 99.9956 202.165C92.2665 193.47 87.5563 182.118 85.8656 168.109C84.1744 154.1 85.2615 141.298 89.1265 129.705C92.0249 122.458 96.131 115.937 101.444 110.14C97.5799 98.0633 98.3045 84.2958 103.618 68.8374C119.077 69.8036 133.086 75.1174 145.646 84.7788C169.799 78.4989 194.919 78.2574 221.005 84.0542C224.386 81.6389 229.579 78.6199 236.583 74.9964C243.588 71.3734 252.404 69.3202 263.032 68.8371C264.964 74.1509 266.293 80.4308 267.017 87.6769C267.742 94.923 267.38 101.686 265.931 107.966C277.041 119.56 282.838 135.018 283.321 154.341C283.321 169.799 280.664 182.601 275.351 192.745C270.037 202.89 260.617 211.343 247.091 218.106C237.912 222.454 225.836 225.111 210.86 226.077C217.624 229.458 222.575 232.961 225.715 236.584C228.855 240.207 230.908 245.883 231.875 253.612V276.438L232.599 298.538C234.048 300.954 235.739 303.007 237.672 304.698C239.604 306.388 241.295 307.596 242.744 308.321C244.193 309.045 244.676 310.132 244.193 311.582C243.71 313.031 241.777 313.756 238.396 313.756C230.184 313.756 223.663 310.857 218.832 305.06C217.383 302.644 216.658 299.746 216.658 296.365V261.583C216.658 257.719 215.692 254.941 213.76 253.25C211.827 251.559 209.895 250.472 207.963 249.989V295.64C207.963 303.852 208.929 309.166 210.861 311.581C212.793 313.996 214.001 316.412 214.485 318.827C214.968 319.31 214.605 319.672 213.397 319.914C212.19 320.155 210.137 319.793 207.238 318.827C200.958 317.378 196.61 314.117 194.195 309.045C191.78 303.972 190.572 298.538 190.572 292.741V247.816H181.152V292.742C181.152 298.539 179.944 304.094 177.529 309.408C174.148 316.171 167.867 319.794 158.689 320.277C157.24 319.794 156.515 319.311 156.515 318.828C156.999 318.345 158.448 315.93 160.863 311.582C161.346 310.616 161.95 308.684 162.675 305.785C163.4 302.887 163.762 299.505 163.762 295.641V249.99C161.83 250.473 160.018 251.56 158.327 253.251C156.636 254.942 155.791 257.72 155.791 261.584V296.365C155.791 299.746 155.066 302.645 153.617 305.061C149.269 310.857 142.748 313.756 134.053 313.756C130.671 313.756 128.739 313.032 128.256 311.582C127.773 310.616 127.894 309.771 128.619 309.046C129.344 308.322 130.43 307.476 131.88 306.51C133.329 305.544 134.295 304.819 134.778 304.336C136.71 302.887 138.159 300.954 139.126 298.539C140.575 296.607 140.937 291.535 140.212 283.322C139.488 275.11 139.367 269.796 139.85 267.381C127.29 271.729 114.489 269.554 101.445 260.859C97.5806 256.995 93.716 251.439 89.8515 244.193C86.953 238.879 81.1562 232.599 72.4612 225.353Z" fill="#BE3C3C"/>
</svg>
