<svg width="116" height="116" viewBox="0 0 116 116" fill="none" xmlns="http://www.w3.org/2000/svg">
<g clip-path="url(#clip0_92_460)">
<path fill-rule="evenodd" clip-rule="evenodd" d="M116 58C116 90.0329 90.0329 116 58 116C25.9671 116 0 90.0329 0 58C0 25.9671 25.9671 0 58 0C90.0329 0 116 25.9671 116 58ZM32.9875 51.5549V31.8252H23.6567V82.9449H32.9778L32.9875 64.9311C32.9778 61.9079 33.263 59.6241 33.8333 58.0774C34.394 56.5332 35.2785 55.378 36.511 54.6047C37.7169 53.8362 39.1041 53.4495 40.6507 53.4495C42.0017 53.4495 43.1206 53.7492 44.0196 54.3558C44.8994 54.9262 45.5597 55.7782 45.8925 56.7724C46.2477 57.7874 46.4169 60.1751 46.4169 63.9451V82.9449H55.7501V61.8499C55.7501 58.6212 55.5906 56.2408 55.2716 54.711C54.9502 53.174 54.3557 51.7796 53.476 50.506C52.6012 49.2445 51.3058 48.2054 49.5731 47.3958C47.8452 46.5814 45.9191 46.1705 43.7682 46.1705C39.5922 46.1705 35.9914 47.9734 32.9875 51.5549ZM69.7377 51.5549V31.8252H60.4167V82.9449H69.7377V64.9311C69.7377 61.9079 70.0229 59.6241 70.5836 58.0774C71.1515 56.5332 72.0408 55.378 73.2564 54.6047C74.4647 53.8362 75.8519 53.4495 77.3962 53.4495C78.7471 53.4495 79.8757 53.7492 80.765 54.3558C81.6475 54.9244 82.3099 55.7768 82.6427 56.7724C82.998 57.7874 83.1744 60.1751 83.1744 63.9451V82.9449H92.4979V61.8499C92.4979 58.6212 92.3384 56.2408 92.017 54.711C91.7103 53.2019 91.0994 51.7712 90.2214 50.506C89.3514 49.2445 88.0561 48.2054 86.3306 47.3958C84.6002 46.5814 82.6597 46.1705 80.5161 46.1705C76.3425 46.1705 72.7441 47.9734 69.7377 51.5549Z" fill="#BE3C3C"/>
</g>
<defs>
<clipPath id="clip0_92_460">
<rect width="116" height="116" fill="white"/>
</clipPath>
</defs>
</svg>
