<svg width="231" height="6" viewBox="0 0 231 6" fill="none" xmlns="http://www.w3.org/2000/svg">
<path d="M231 0.5H228.489V5.5H231V0.5ZM223.467 0.5H218.446V5.5H223.467V0.5ZM213.424 0.5H208.402V5.5H213.424V0.5ZM203.38 0.5H198.359V5.5H203.38V0.5ZM193.337 0.5H188.315V5.5H193.337V0.5ZM183.293 0.5H178.272V5.5H183.293V0.5ZM173.25 0.5H168.228V5.5H173.25V0.5ZM163.207 0.5H158.185V5.5H163.207V0.5ZM153.163 0.5H148.141V5.5H153.163V0.5ZM143.12 0.5H138.098V5.5H143.12V0.5ZM133.076 0.5H128.054V5.5H133.076V0.5ZM123.033 0.5H118.011V5.5H123.033V0.5ZM112.989 0.5H107.967V5.5H112.989V0.5ZM102.946 0.5H97.9239V5.5H102.946V0.5ZM92.9022 0.5H87.8804V5.5H92.9022V0.5ZM82.8587 0.5H77.837V5.5H82.8587V0.5ZM72.8152 0.5H67.7935V5.5H72.8152V0.5ZM62.7717 0.5H57.75V5.5H62.7717V0.5ZM52.7282 0.5H47.7065V5.5H52.7282V0.5ZM42.6848 0.5H37.663V5.5H42.6848V0.5ZM32.6413 0.5H27.6195V5.5H32.6413V0.5ZM22.5978 0.5H17.576V5.5H22.5978V0.5ZM12.5543 0.5H7.53255V5.5H12.5543V0.5ZM2.5108 0.5H0V5.5H2.5108V0.5Z" fill="black"/>
</svg>
