<svg width="60" height="60" viewBox="0 0 60 60" fill="none" xmlns="http://www.w3.org/2000/svg">
<path d="M38.6743 0H20.5249C3.9405 0 0 3.94346 0 20.4924V38.6447C0 55.2232 3.91388 59.1667 20.4924 59.1667H38.6447C55.2232 59.1667 59.1667 55.2528 59.1667 38.6743V20.5249C59.1667 3.9405 55.2528 0 38.6743 0ZM47.7653 42.2154H43.449C41.816 42.2154 41.325 40.893 38.3962 37.9643C35.8402 35.5 34.7604 35.1923 34.1125 35.1923C33.2191 35.1923 32.9736 35.4379 32.9736 36.6715V40.5528C32.9736 41.603 32.6334 42.2184 29.891 42.2184C27.2295 42.0395 24.6486 41.2309 22.3609 39.8592C20.0731 38.4875 18.144 36.5919 16.7323 34.3285C13.381 30.1572 11.0492 25.2616 9.92225 20.0309C9.92225 19.383 10.1678 18.7973 11.4014 18.7973H15.7176C16.827 18.7973 17.2264 19.2913 17.6583 20.4303C19.7528 26.5954 23.3265 31.9559 24.776 31.9559C25.3322 31.9559 25.5748 31.7104 25.5748 30.3229V23.9743C25.3914 21.0781 23.853 20.8326 23.853 19.7853C23.8728 19.5091 23.9994 19.2514 24.2059 19.067C24.4125 18.8825 24.6828 18.7858 24.9595 18.7973H31.74C32.6659 18.7973 32.9736 19.2588 32.9736 20.3681V28.9355C32.9736 29.8614 33.373 30.1691 33.651 30.1691C34.2072 30.1691 34.6362 29.8614 35.6538 28.8438C37.8396 26.1781 39.6255 23.2084 40.9552 20.0279C41.0911 19.6459 41.3483 19.3188 41.6874 19.0966C42.0266 18.8744 42.4292 18.7693 42.8337 18.7973H47.1499C48.4427 18.7973 48.7178 19.4451 48.4427 20.3681C46.8733 23.8839 44.9314 27.2212 42.6503 30.3229C42.1858 31.0329 41.9995 31.4027 42.6503 32.234C43.0793 32.8819 44.591 34.1451 45.6086 35.3462C47.0875 36.8213 48.3156 38.5281 49.2444 40.399C49.6142 41.6001 48.9959 42.2154 47.7653 42.2154Z" fill="#BE3C3C"/>
</svg>
